<svg width="88" height="80" viewBox="0 0 88 80" fill="none" xmlns="http://www.w3.org/2000/svg">
<g clip-path="url(#clip0_2266_1495)">
<path d="M88 11.6304L78.5814 5.07744C78.2496 4.70171 76.9423 3.30784 74.7827 2.07161C72.5024 0.768385 68.7943 -0.601842 64.079 0.278362C55.2321 1.9271 47.821 15.9184 46.1334 19.3302L4.72571 70.1429L4.64966 70.1862L4.66671 70.2151L0 75.9417L37.63 64.8236L54.0533 79.9998V64.9773C55.2662 64.4715 58.3201 63.1012 61.8158 60.7917C69.2702 55.8652 72.7031 50.6208 74.2687 47.0907C79.1229 36.1473 79.1596 26.3271 78.1919 14.2578L88 11.6317V11.6304ZM78.0477 12.5276L63.7997 20.9237L54.0113 9.89097C56.9354 6.12975 60.5675 2.67068 64.3885 1.95732C67.7439 1.33198 70.9368 1.85879 73.8779 3.52329C76.0979 4.77922 77.337 6.24929 77.3488 6.26243L77.4235 6.35308L84.006 10.9328L78.0464 12.5276M76.1228 35.2908L66.2282 27.0063L47.8223 19.7716C48.6575 18.1281 50.4985 14.7058 52.9676 11.2835L63.6293 23.3016L76.6394 15.9526C77.3606 24.3237 77.3973 28.144 76.1228 35.2908ZM52.7879 37.4873L47.8196 21.6056L64.732 28.2531L52.7879 37.4873ZM51.3495 38.6001L28.9391 55.8573L29.9802 57.2091L52.3644 39.9729L58.9573 47.0776L29.6747 56.4472L46.3275 22.5436L51.3508 38.6001H51.3495ZM60.3236 46.0424L53.7189 38.9246L65.0585 30.158L60.3236 46.0424ZM42.475 26.5176L27.3761 57.2578L8.82727 67.8084L42.475 26.5176ZM5.8442 71.4698L28.3687 58.6582L59.5369 48.6856L56.959 57.3313L4.80963 72.7401L5.8442 71.4698ZM60.9098 59.3427C56.6299 62.1764 52.9361 63.586 52.8994 63.6005L52.3474 63.808V76.1007L39.5339 64.26L58.3266 58.7068L65.9187 33.2387L70.7113 49.9823C67.8934 54.1626 63.9938 57.2998 60.9085 59.3427H60.9098ZM72.7096 46.3958C72.4657 46.9449 72.2009 47.4796 71.9176 47.9998L66.6451 29.5813L75.7425 37.1983C75.0738 40.233 74.0943 43.2717 72.7083 46.3958H72.7096Z" fill="#CEB471"/>
<path d="M70.824 9.76773C71.8901 9.76773 72.7555 8.90198 72.7555 7.8326C72.7555 6.76321 71.8914 5.89746 70.824 5.89746C69.7567 5.89746 68.8926 6.76321 68.8926 7.8326C68.8926 8.90198 69.7567 9.76773 70.824 9.76773Z" fill="#CEB471"/>
</g>
<defs>
<clipPath id="clip0_2266_1495">
<rect width="88" height="80" fill="white"/>
</clipPath>
</defs>
</svg>
